<?xml version="1.0" encoding="UTF-8"?>
<svg width="169px" height="92px" viewBox="0 0 169 92" version="1.1" xmlns="http://www.w3.org/2000/svg" xmlns:xlink="http://www.w3.org/1999/xlink">
    <title>Group 6</title>
    <defs>
        <linearGradient x1="50%" y1="0%" x2="50%" y2="100%" id="linearGradient-1">
            <stop stop-color="#AAE4FF" stop-opacity="0.410128934" offset="0%"></stop>
            <stop stop-color="#5255FF" stop-opacity="0.513849432" offset="99.934016%"></stop>
        </linearGradient>
        <path d="M57.126,53 L42.564,68 L28.002,53 L57.126,53 Z M42.564,24 L57.128,39 L28,39 L42.564,24 Z" id="path-2"></path>
        <filter x="-6.9%" y="-4.5%" width="127.5%" height="118.2%" filterUnits="objectBoundingBox" id="filter-3">
            <feOffset dx="2" dy="2" in="SourceAlpha" result="shadowOffsetOuter1"></feOffset>
            <feGaussianBlur stdDeviation="1" in="shadowOffsetOuter1" result="shadowBlurOuter1"></feGaussianBlur>
            <feColorMatrix values="0 0 0 0 0   0 0 0 0 0   0 0 0 0 0  0 0 0 0.5 0" type="matrix" in="shadowBlurOuter1"></feColorMatrix>
        </filter>
    </defs>
    <g id="Page-1" stroke="none" stroke-width="1" fill="none" fill-rule="evenodd">
        <g id="Home-Copy-3" transform="translate(-53.000000, -1073.000000)">
            <g id="Group-4-Copy" transform="translate(53.000000, 1073.000000)">
                <g id="Group-6">
                    <rect id="Rectangle" fill="url(#linearGradient-1)" opacity="0.6" x="0" y="0" width="169" height="92" rx="28"></rect>
                    <g id="Combined-Shape" opacity="0.682431176">
                        <use fill="black" fill-opacity="1" filter="url(#filter-3)" xlink:href="#path-2"></use>
                        <use fill="#D8D8D8" fill-rule="evenodd" xlink:href="#path-2"></use>
                    </g>
                    <path d="M93.772,59.904 L93.772,54.356 L81.27,54.356 L81.27,48.77 L92.442,48.77 L92.442,43.564 L81.27,43.564 L81.27,38.51 L93.088,38.51 L93.088,33 L75,33 L75,59.904 L93.772,59.904 Z M109.925455,59.904 L109.925455,38.548 L117.525455,38.548 L117.525455,33 L95.8274545,33 L95.8274545,38.548 L103.427455,38.548 L103.427455,59.904 L109.925455,59.904 Z M127.332909,59.904 L127.332909,48.656 L137.820909,48.656 L137.820909,59.904 L144.318909,59.904 L144.318909,33 L137.820909,33 L137.820909,43.184 L127.332909,43.184 L127.332909,33 L120.834909,33 L120.834909,59.904 L127.332909,59.904 Z" id="ETH" fill="#FFFFFF" fill-rule="nonzero"></path>
                </g>
            </g>
        </g>
    </g>
</svg>