<?xml version="1.0" encoding="UTF-8"?>
<svg width="169px" height="92px" viewBox="0 0 169 92" version="1.1" xmlns="http://www.w3.org/2000/svg" xmlns:xlink="http://www.w3.org/1999/xlink">
    <title>Group 4</title>
    <defs>
        <linearGradient x1="50%" y1="0%" x2="50%" y2="100%" id="linearGradient-1">
            <stop stop-color="#AAE4FF" stop-opacity="0.410128934" offset="0%"></stop>
            <stop stop-color="#5255FF" stop-opacity="0.513849432" offset="99.934016%"></stop>
        </linearGradient>
        <path d="M57.126,53 L42.564,68 L28.002,53 L57.126,53 Z M42.564,24 L57.128,39 L28,39 L42.564,24 Z" id="path-2"></path>
        <filter x="-6.9%" y="-4.5%" width="127.5%" height="118.2%" filterUnits="objectBoundingBox" id="filter-3">
            <feOffset dx="2" dy="2" in="SourceAlpha" result="shadowOffsetOuter1"></feOffset>
            <feGaussianBlur stdDeviation="1" in="shadowOffsetOuter1" result="shadowBlurOuter1"></feGaussianBlur>
            <feColorMatrix values="0 0 0 0 0   0 0 0 0 0   0 0 0 0 0  0 0 0 0.5 0" type="matrix" in="shadowBlurOuter1"></feColorMatrix>
        </filter>
    </defs>
    <g id="Page-1" stroke="none" stroke-width="1" fill="none" fill-rule="evenodd">
        <g id="Home-Copy-3" transform="translate(-53.000000, -1073.000000)">
            <g id="Group-4" transform="translate(53.000000, 1073.000000)">
                <rect id="Rectangle" fill="url(#linearGradient-1)" opacity="0.6" x="0" y="0" width="169" height="92" rx="28"></rect>
                <path d="M103.15,69.565 L103.15,65.605 C104.69,65.5683333 106.165833,65.2933333 107.5775,64.78 C108.989167,64.2666667 110.235833,63.5241667 111.3175,62.5525 C112.399167,61.5808333 113.260833,60.3708333 113.9025,58.9225 C114.544167,57.4741667 114.865,55.7966667 114.865,53.89 C114.865,52.02 114.516667,50.4433333 113.82,49.16 C113.123333,47.8766667 112.215833,46.7858333 111.0975,45.8875 C109.979167,44.9891667 108.723333,44.2466667 107.33,43.66 C105.936667,43.0733333 104.543333,42.56 103.15,42.12 L103.15,42.12 L103.15,31.01 C104.433333,31.01 105.7075,31.2575 106.9725,31.7525 C108.2375,32.2475 109.291667,32.9716667 110.135,33.925 L110.135,33.925 L114.59,29.305 C113.086667,28.0216667 111.308333,27.0591667 109.255,26.4175 C107.201667,25.7758333 105.166667,25.4366667 103.15,25.4 L103.15,25.4 L103.15,21.77 L100.18,21.77 L100.18,25.51 C98.7133333,25.62 97.2925,25.9408333 95.9175,26.4725 C94.5425,27.0041667 93.3141667,27.7283333 92.2325,28.645 C91.1508333,29.5616667 90.2891667,30.6708333 89.6475,31.9725 C89.0058333,33.2741667 88.685,34.75 88.685,36.4 C88.685,38.16 88.9783333,39.6541667 89.565,40.8825 C90.1516667,42.1108333 90.9675,43.165 92.0125,44.045 C93.0575,44.925 94.2766667,45.6491667 95.67,46.2175 C97.0633333,46.7858333 98.5666667,47.29 100.18,47.73 L100.18,47.73 L100.18,59.94 C98.7866667,59.9033333 97.3383333,59.5091667 95.835,58.7575 C94.3316667,58.0058333 93.085,57.0433333 92.095,55.87 L92.095,55.87 L87.255,60.49 C89.015,62.1766667 91.0041667,63.4325 93.2225,64.2575 C95.4408333,65.0825 97.76,65.5316667 100.18,65.605 L100.18,65.605 L100.18,69.565 L103.15,69.565 Z M100.18,41.35 C98.7866667,40.9466667 97.6225,40.3508333 96.6875,39.5625 C95.7525,38.7741667 95.285,37.61 95.285,36.07 C95.285,34.4566667 95.78,33.2466667 96.77,32.44 C97.76,31.6333333 98.8966667,31.1566667 100.18,31.01 L100.18,31.01 L100.18,41.35 Z M103.15,59.94 L103.15,48.61 C104.616667,49.1233333 105.835833,49.7925 106.8075,50.6175 C107.779167,51.4425 108.265,52.6616667 108.265,54.275 C108.265,55.925 107.7975,57.2633333 106.8625,58.29 C105.9275,59.3166667 104.69,59.8666667 103.15,59.94 L103.15,59.94 Z" id="$" fill="#FFFFFF" fill-rule="nonzero"></path>
                <g id="Combined-Shape" opacity="0.682431176">
                    <use fill="black" fill-opacity="1" filter="url(#filter-3)" xlink:href="#path-2"></use>
                    <use fill="#D8D8D8" fill-rule="evenodd" xlink:href="#path-2"></use>
                </g>
            </g>
        </g>
    </g>
</svg>