<?xml version="1.0" encoding="UTF-8"?>
<svg width="34px" height="34px" viewBox="0 0 34 34" version="1.1" xmlns="http://www.w3.org/2000/svg" xmlns:xlink="http://www.w3.org/1999/xlink">
    <title>Shape</title>
    <g id="Page-1" stroke="none" stroke-width="1" fill="none" fill-rule="evenodd" fill-opacity="0.454986">
        <g id="Home" transform="translate(-686.000000, -254.000000)" fill="#FFFFFF" fill-rule="nonzero">
            <path d="M704.875,264.207107 L701.125,264.207107 L701.125,269.832107 L695.5,269.832107 L695.5,273.582107 L701.125,273.582107 L701.125,279.207107 L704.875,279.207107 L704.875,273.582107 L710.5,273.582107 L710.5,269.832107 L704.875,269.832107 M703,284 C695.820298,284 690,278.179702 690,271 C690,263.820298 695.820298,258 703,258 C710.179702,258 716,263.820298 716,271 C716,278.179702 710.179702,284 703,284 M703,254 C693.611159,254 686,261.611159 686,271 C686,280.388841 693.611159,288 703,288 C712.388841,288 720,280.388841 720,271 C720,261.611159 712.388841,254 703,254" id="Shape" transform="translate(703.000000, 271.000000) rotate(-315.000000) translate(-703.000000, -271.000000) "></path>
        </g>
    </g>
</svg>