<?xml version="1.0" encoding="UTF-8"?>
<svg width="99px" height="87px" viewBox="0 0 99 87" version="1.1" xmlns="http://www.w3.org/2000/svg" xmlns:xlink="http://www.w3.org/1999/xlink">
    <title>Group 3</title>
    <g id="Page-1" stroke="none" stroke-width="1" fill="none" fill-rule="evenodd">
        <g id="Home" transform="translate(-324.000000, -1372.000000)" fill="#CBFFAA" fill-rule="nonzero">
            <g id="Group-4" transform="translate(48.000000, 831.000000)">
                <g id="Group-2-Copy" transform="translate(0.000000, 349.000000)">
                    <g id="Group-3" transform="translate(276.759036, 192.000000)">
                        <path d="M94.3802217,58.0394022 C90.6839912,67.0287717 83.6230732,74.4060014 74.5065889,78.2789986 L74.5065889,78.2789986 L74.5065889,84.1039402 C74.5065889,85.7025652 73.2334639,87 71.664792,87 L71.664792,87 L25.8171357,87 C24.2484639,87 22.9753389,85.7025652 22.9753389,84.1039402 L22.9753389,84.1039402 L22.9753389,78.2789986 C13.8588545,74.4060014 6.79793651,67.0287717 3.10170604,58.0394022 L3.10170604,58.0394022 Z M94.399167,40.6630435 C95.9678389,40.6630435 97.2409639,41.9604783 97.2409639,43.5591033 C97.2409639,46.5285299 96.8961592,49.4400353 96.2368623,52.2472826 L96.2368623,52.2472826 L1.24506542,52.2472826 C0.585768543,49.4400353 0.240963855,46.5285299 0.240963855,43.5591033 C0.240963855,41.9604783 1.51408886,40.6630435 3.08276073,40.6630435 L3.08276073,40.6630435 Z M34.4046077,0.858644864 C35.5013481,2.00350468 35.5013481,3.85955345 34.4046077,5.00441327 C32.3979733,7.09928394 32.3977861,10.489695 34.4046077,12.5847611 C38.5966723,16.9607523 38.5966723,24.0806547 34.4046077,28.4566458 C33.3080545,29.6013102 31.5296425,29.6015056 30.4330893,28.4566458 C29.3363489,27.311786 29.3363489,25.4557372 30.4330893,24.3108774 C32.4397236,22.2160067 32.4399108,18.8255956 30.4330893,16.7305295 C26.2410246,12.3545384 26.2410246,5.23463602 30.4330893,0.858644864 C31.5296425,-0.286214955 33.3078672,-0.286214955 34.4046077,0.858644864 Z M51.1930692,0.858644864 C52.2898096,2.00350468 52.2898096,3.85955345 51.1930692,5.00441327 C49.1864349,7.09928394 49.1862477,10.489695 51.1930692,12.5847611 C55.3851339,16.9607523 55.3851339,24.0806547 51.1930692,28.4566458 C50.096516,29.6013102 48.318104,29.6015056 47.2215508,28.4566458 C46.1248104,27.311786 46.1248104,25.4557372 47.2215508,24.3108774 C49.2281851,22.2160067 49.2283724,18.8255956 47.2215508,16.7305295 C43.0294861,12.3545384 43.0294861,5.23463602 47.2215508,0.858644864 C48.318104,-0.286214955 50.0963288,-0.286214955 51.1930692,0.858644864 Z M67.0488384,0.858644864 C68.1455789,2.00350468 68.1455789,3.85955345 67.0488384,5.00441327 C65.0423913,7.09908851 65.0420169,10.489695 67.0488384,12.5847611 C71.2409031,16.9607523 71.2409031,24.0806547 67.0488384,28.4566458 C65.9522852,29.6013102 64.1738733,29.6015056 63.0773201,28.4566458 C61.9805796,27.311786 61.9805796,25.4557372 63.0773201,24.3108774 C65.0837672,22.2162022 65.0841416,18.8255956 63.0773201,16.7305295 C58.8852554,12.3545384 58.8852554,5.23463602 63.0773201,0.858644864 C64.1738733,-0.286214955 65.952098,-0.286214955 67.0488384,0.858644864 Z" id="Combined-Shape"></path>
                    </g>
                </g>
            </g>
        </g>
    </g>
</svg>