<?xml version="1.0" encoding="UTF-8"?>
<svg width="64px" height="64px" viewBox="0 0 64 64" version="1.1" xmlns="http://www.w3.org/2000/svg" xmlns:xlink="http://www.w3.org/1999/xlink">
    <title>Combined Shape</title>
    <defs>
        <path d="M71,26 C85.9116882,26 98,38.0883118 98,53 C98,67.9116882 85.9116882,80 71,80 C56.0883118,80 44,67.9116882 44,53 C44,38.0883118 56.0883118,26 71,26 Z M70.85,41.976 C69.101,41.976 69.101,41.976 67.418,42.372 C65.735,42.768 65.735,42.768 64.4315,43.593 C63.128,44.418 63.128,44.418 62.336,45.738 C61.544,47.058 61.544,47.058 61.544,48.873 C61.544,50.688 61.544,50.688 62.567,51.9585 C63.4877,53.10195 63.4877,53.10195 64.75589,53.670705 L65.042,53.79 L65.042,53.889 C63.293,54.615 63.293,54.615 62.2205,56.001 C61.148,57.387 61.148,57.387 61.148,59.301 C61.148,61.281 61.148,61.281 61.9895,62.6835 C62.831,64.086 62.831,64.086 64.184,64.977 C65.537,65.868 65.537,65.868 67.286,66.264 C69.035,66.66 69.035,66.66 70.85,66.66 C72.665,66.66 72.665,66.66 74.3975,66.2475 C76.13,65.835 76.13,65.835 77.4995,64.944 C78.869,64.053 78.869,64.053 79.7105,62.6505 C80.552,61.248 80.552,61.248 80.552,59.268 C80.552,57.288 80.552,57.288 79.4465,55.8855 C78.4415,54.6105 78.4415,54.6105 76.9592273,53.9764091 L76.658,53.856 L76.658,53.757 C78.242,53.229 78.242,53.229 79.199,51.9585 C80.156,50.688 80.156,50.688 80.156,48.873 C80.156,47.058 80.156,47.058 79.3475,45.738 C78.539,44.418 78.539,44.418 77.2355,43.593 C75.932,42.768 75.932,42.768 74.249,42.372 C72.566,41.976 72.566,41.976 70.85,41.976 Z M70.85,56.859 C71.873,56.859 71.873,56.859 72.3845,57.453 C72.896,58.047 72.896,58.047 72.896,58.806 C72.896,59.565 72.896,59.565 72.3845,60.1425 C71.873,60.72 71.873,60.72 70.85,60.72 C69.827,60.72 69.827,60.72 69.3155,60.1425 C68.804,59.565 68.804,59.565 68.804,58.806 C68.804,58.047 68.804,58.047 69.3155,57.453 C69.827,56.859 69.827,56.859 70.85,56.859 Z M70.85,47.817 C71.741,47.817 71.741,47.817 72.2525,48.3615 C72.764,48.906 72.764,48.906 72.764,49.533 C72.764,50.193 72.764,50.193 72.2525,50.754 C71.741,51.315 71.741,51.315 70.85,51.315 C69.959,51.315 69.959,51.315 69.4475,50.754 C68.936,50.193 68.936,50.193 68.936,49.533 C68.936,48.906 68.936,48.906 69.4475,48.3615 C69.959,47.817 69.959,47.817 70.85,47.817 Z" id="path-1"></path>
        <filter x="-13.9%" y="-13.9%" width="127.8%" height="127.8%" filterUnits="objectBoundingBox" id="filter-2">
            <feOffset dx="0" dy="0" in="SourceAlpha" result="shadowOffsetOuter1"></feOffset>
            <feGaussianBlur stdDeviation="2.5" in="shadowOffsetOuter1" result="shadowBlurOuter1"></feGaussianBlur>
            <feColorMatrix values="0 0 0 0 1   0 0 0 0 0.668542395   0 0 0 0 0  0 0 0 1 0" type="matrix" in="shadowBlurOuter1"></feColorMatrix>
        </filter>
    </defs>
    <g id="Page-1" stroke="none" stroke-width="1" fill="none" fill-rule="evenodd">
        <g id="Home-Copy-2" transform="translate(-39.000000, -1401.000000)">
            <g id="Group-3" transform="translate(0.000000, 624.000000)">
                <g id="Group-2-Copy-7" transform="translate(0.000000, 756.000000)">
                    <g id="Combined-Shape">
                        <use fill="black" fill-opacity="1" filter="url(#filter-2)" xlink:href="#path-1"></use>
                        <use fill="#F0B119" fill-rule="evenodd" xlink:href="#path-1"></use>
                    </g>
                </g>
            </g>
        </g>
    </g>
</svg>