<?xml version="1.0" encoding="UTF-8"?>
<svg width="64px" height="64px" viewBox="0 0 64 64" version="1.1" xmlns="http://www.w3.org/2000/svg" xmlns:xlink="http://www.w3.org/1999/xlink">
    <title>Combined Shape</title>
    <defs>
        <path d="M71,26 C85.9116882,26 98,38.0883118 98,53 C98,67.9116882 85.9116882,80 71,80 C56.0883118,80 44,67.9116882 44,53 C44,38.0883118 56.0883118,26 71,26 Z M79.364,42.636 L63.491,42.636 L62.666,56.925 C63.425,56.793 63.425,56.793 64.2665,56.661 C65.108,56.529 65.108,56.529 65.933,56.43 C66.758,56.331 66.758,56.331 67.5005,56.2815 C68.243,56.232 68.243,56.232 68.771,56.232 C69.497,56.232 69.497,56.232 70.2395,56.3145 C70.982,56.397 70.982,56.397 71.576,56.628 C72.17,56.859 72.17,56.859 72.5495,57.2385 C72.929,57.618 72.929,57.618 72.929,58.212 C72.929,59.202 72.929,59.202 72.269,59.598 C71.609,59.994 71.609,59.994 70.751,59.994 C69.662,59.994 69.662,59.994 68.8865,59.2845 C68.1971667,58.6538333 68.1971667,58.6538333 67.9641296,57.8276111 L67.913,57.618 L60.653,59.466 C60.983,61.182 60.983,61.182 61.973,62.5185 C62.963,63.855 62.963,63.855 64.382,64.779 C65.801,65.703 65.801,65.703 67.517,66.1815 C69.233,66.66 69.233,66.66 71.015,66.66 C72.698,66.66 72.698,66.66 74.4305,66.2475 C76.163,65.835 76.163,65.835 77.5655,64.845 C78.968,63.855 78.968,63.855 79.859,62.2215 C80.75,60.588 80.75,60.588 80.75,58.146 C80.75,56.199 80.75,56.199 80.024,54.78 C79.298,53.361 79.298,53.361 78.0605,52.4535 C76.823,51.546 76.823,51.546 75.1895,51.117 C73.556,50.688 73.556,50.688 71.741,50.688 C71.378,50.688 71.378,50.688 70.916,50.7375 L70.454,50.791125 L70.454,50.791125 L69.992,50.853 L70.124,49.17 L79.364,49.17 L79.364,42.636 Z" id="path-1"></path>
        <filter x="-13.9%" y="-13.9%" width="127.8%" height="127.8%" filterUnits="objectBoundingBox" id="filter-2">
            <feOffset dx="0" dy="0" in="SourceAlpha" result="shadowOffsetOuter1"></feOffset>
            <feGaussianBlur stdDeviation="2.5" in="shadowOffsetOuter1" result="shadowBlurOuter1"></feGaussianBlur>
            <feColorMatrix values="0 0 0 0 1   0 0 0 0 0.668542395   0 0 0 0 0  0 0 0 1 0" type="matrix" in="shadowBlurOuter1"></feColorMatrix>
        </filter>
    </defs>
    <g id="Page-1" stroke="none" stroke-width="1" fill="none" fill-rule="evenodd">
        <g id="Home-Copy-2" transform="translate(-39.000000, -1077.000000)">
            <g id="Group-3" transform="translate(0.000000, 624.000000)">
                <g id="Group-2-Copy-4" transform="translate(0.000000, 432.000000)">
                    <g id="Combined-Shape">
                        <use fill="black" fill-opacity="1" filter="url(#filter-2)" xlink:href="#path-1"></use>
                        <use fill="#F0B119" fill-rule="evenodd" xlink:href="#path-1"></use>
                    </g>
                </g>
            </g>
        </g>
    </g>
</svg>