<?xml version="1.0" encoding="UTF-8"?>
<svg width="64px" height="64px" viewBox="0 0 64 64" version="1.1" xmlns="http://www.w3.org/2000/svg" xmlns:xlink="http://www.w3.org/1999/xlink">
    <title>Combined Shape</title>
    <defs>
        <path d="M71,26 C85.9116882,26 98,38.0883118 98,53 C98,67.9116882 85.9116882,80 71,80 C56.0883118,80 44,67.9116882 44,53 C44,38.0883118 56.0883118,26 71,26 Z M71.18,41.976 C69.629,41.976 69.629,41.976 68.0285,42.3225 C66.428,42.669 66.428,42.669 65.0255,43.461 C63.623,44.253 63.623,44.253 62.534,45.5565 C61.5539,46.72965 61.5539,46.72965 60.97475,48.397305 L60.851,48.774 L68.144,50.325 C68.309,49.335 68.309,49.335 69.002,48.8235 C69.695,48.312 69.695,48.312 70.52,48.312 C71.18,48.312 71.18,48.312 71.774,48.609 C72.368,48.906 72.368,48.906 72.368,49.665 C72.368,50.655 72.368,50.655 71.609,51.0015 C70.9343333,51.3095 70.9343333,51.3095 69.8685556,51.3437222 L69.596,51.348 L67.088,51.348 L67.088,56.76 L69.332,56.76 C70.883,56.76 70.883,56.76 71.807,57.09 C72.731,57.42 72.731,57.42 72.731,58.476 C72.731,58.938 72.731,58.938 72.533,59.235 C72.335,59.532 72.335,59.532 72.038,59.7135 C71.741,59.895 71.741,59.895 71.378,59.9775 C71.015,60.06 71.015,60.06 70.685,60.06 C69.464,60.06 69.464,60.06 68.6885,59.334 C67.9991667,58.6886667 67.9991667,58.6886667 67.7661296,57.939037 L67.715,57.75 L60.389,59.466 C60.851,61.347 60.851,61.347 61.9235,62.7 C62.996,64.053 62.996,64.053 64.4315,64.944 C65.867,65.835 65.867,65.835 67.5995,66.2475 C69.332,66.66 69.332,66.66 71.114,66.66 C72.896,66.66 72.896,66.66 74.645,66.231 C76.394,65.802 76.394,65.802 77.78,64.8615 C79.166,63.921 79.166,63.921 80.024,62.4525 C80.882,60.984 80.882,60.984 80.882,58.938 C80.882,58.113 80.882,58.113 80.6015,57.3045 C80.321,56.496 80.321,56.496 79.793,55.803 C79.265,55.11 79.265,55.11 78.5225,54.582 C77.90375,54.142 77.90375,54.142 77.181875,53.8624167 L76.889,53.757 L76.889,53.625 C78.374,53.196 78.374,53.196 79.4135,52.0245 C80.453,50.853 80.453,50.853 80.453,48.873 C80.453,47.025 80.453,47.025 79.595,45.7215 C78.737,44.418 78.737,44.418 77.384,43.5765 C76.031,42.735 76.031,42.735 74.381,42.3555 C72.731,41.976 72.731,41.976 71.18,41.976 Z" id="path-1"></path>
        <filter x="-13.9%" y="-13.9%" width="127.8%" height="127.8%" filterUnits="objectBoundingBox" id="filter-2">
            <feOffset dx="0" dy="0" in="SourceAlpha" result="shadowOffsetOuter1"></feOffset>
            <feGaussianBlur stdDeviation="2.5" in="shadowOffsetOuter1" result="shadowBlurOuter1"></feGaussianBlur>
            <feColorMatrix values="0 0 0 0 1   0 0 0 0 0.668542395   0 0 0 0 0  0 0 0 1 0" type="matrix" in="shadowBlurOuter1"></feColorMatrix>
        </filter>
    </defs>
    <g id="Page-1" stroke="none" stroke-width="1" fill="none" fill-rule="evenodd">
        <g id="Home-Copy-2" transform="translate(-39.000000, -861.000000)">
            <g id="Group-3" transform="translate(0.000000, 624.000000)">
                <g id="Group-2-Copy-2" transform="translate(0.000000, 216.000000)">
                    <g id="Combined-Shape">
                        <use fill="black" fill-opacity="1" filter="url(#filter-2)" xlink:href="#path-1"></use>
                        <use fill="#F0B119" fill-rule="evenodd" xlink:href="#path-1"></use>
                    </g>
                </g>
            </g>
        </g>
    </g>
</svg>