<?xml version="1.0" encoding="UTF-8"?>
<svg width="64px" height="64px" viewBox="0 0 64 64" version="1.1" xmlns="http://www.w3.org/2000/svg" xmlns:xlink="http://www.w3.org/1999/xlink">
    <title>Combined Shape</title>
    <defs>
        <path d="M71,26 C85.9116882,26 98,38.0883118 98,53 C98,67.9116882 85.9116882,80 71,80 C56.0883118,80 44,67.9116882 44,53 C44,38.0883118 56.0883118,26 71,26 Z M80.55,41.976 C78.405,41.976 78.405,41.976 76.788,42.5205 C75.171,43.065 75.171,43.065 74.016,43.989 C72.861,44.913 72.861,44.913 72.0855,46.134 C71.31,47.355 71.31,47.355 70.8645,48.708 C70.419,50.061 70.419,50.061 70.2375,51.48 C70.056,52.899 70.056,52.899 70.056,54.186 C70.056,55.506 70.056,55.506 70.2375,56.925 C70.419,58.344 70.419,58.344 70.8645,59.73 C71.31,61.116 71.31,61.116 72.0855,62.37 C72.861,63.624 72.861,63.624 74.016,64.581 C75.171,65.538 75.171,65.538 76.788,66.099 C78.405,66.66 78.405,66.66 80.55,66.66 C82.695,66.66 82.695,66.66 84.312,66.099 C85.929,65.538 85.929,65.538 87.1005,64.581 C88.272,63.624 88.272,63.624 89.031,62.37 C89.79,61.116 89.79,61.116 90.2355,59.73 C90.681,58.344 90.681,58.344 90.8625,56.9085 C91.044,55.473 91.044,55.473 91.044,54.186 C91.044,52.239 91.044,52.239 90.615,50.0775 C90.186,47.916 90.186,47.916 89.031,46.1175 C87.876,44.319 87.876,44.319 85.83,43.1475 C83.784,41.976 83.784,41.976 80.55,41.976 Z M65.924,42.636 L58.664,42.636 L50.381,47.916 L54.077,53.658 L58.004,50.952 L58.004,66 L65.924,66 L65.924,42.636 Z M80.55,48.741 C81.276,48.741 81.276,48.741 81.7545,49.236 C82.233,49.731 82.233,49.731 82.4805,50.523 C82.728,51.315 82.728,51.315 82.827,52.2885 C82.926,53.262 82.926,53.262 82.926,54.186 C82.926,55.143 82.926,55.143 82.827,56.1495 C82.728,57.156 82.728,57.156 82.4805,57.981 C82.233,58.806 82.233,58.806 81.7545,59.3175 C81.276,59.829 81.276,59.829 80.55,59.829 C79.824,59.829 79.824,59.829 79.362,59.3175 C78.9,58.806 78.9,58.806 78.636,57.981 C78.372,57.156 78.372,57.156 78.273,56.1495 C78.174,55.143 78.174,55.143 78.174,54.186 C78.174,53.262 78.174,53.262 78.273,52.2885 C78.372,51.315 78.372,51.315 78.636,50.523 C78.9,49.731 78.9,49.731 79.362,49.236 C79.824,48.741 79.824,48.741 80.55,48.741 Z" id="path-1"></path>
        <filter x="-13.9%" y="-13.9%" width="127.8%" height="127.8%" filterUnits="objectBoundingBox" id="filter-2">
            <feOffset dx="0" dy="0" in="SourceAlpha" result="shadowOffsetOuter1"></feOffset>
            <feGaussianBlur stdDeviation="2.5" in="shadowOffsetOuter1" result="shadowBlurOuter1"></feGaussianBlur>
            <feColorMatrix values="0 0 0 0 1   0 0 0 0 0.668542395   0 0 0 0 0  0 0 0 1 0" type="matrix" in="shadowBlurOuter1"></feColorMatrix>
        </filter>
    </defs>
    <g id="Page-1" stroke="none" stroke-width="1" fill="none" fill-rule="evenodd">
        <g id="Home-Copy-2" transform="translate(-39.000000, -1617.000000)">
            <g id="Group-3" transform="translate(0.000000, 624.000000)">
                <g id="Group-2-Copy-9" transform="translate(0.000000, 972.000000)">
                    <g id="Combined-Shape">
                        <use fill="black" fill-opacity="1" filter="url(#filter-2)" xlink:href="#path-1"></use>
                        <use fill="#F0B119" fill-rule="evenodd" xlink:href="#path-1"></use>
                    </g>
                </g>
            </g>
        </g>
    </g>
</svg>