<?xml version="1.0" encoding="UTF-8"?>
<svg width="291px" height="267px" viewBox="0 0 291 267" version="1.1" xmlns="http://www.w3.org/2000/svg" xmlns:xlink="http://www.w3.org/1999/xlink">
    <title>metamask-1</title>
    <g id="Page-1" stroke="none" stroke-width="1" fill="none" fill-rule="evenodd" stroke-linecap="round" stroke-linejoin="round">
        <g id="Splash-Copy" transform="translate(-233.000000, -735.000000)" fill-rule="nonzero" stroke-width="0.25">
            <g id="metamask-1" transform="translate(234.000000, 736.000000)">
                <polygon id="Path" stroke="#E17726" fill="#E17726" points="275 0 162 83 183.009624 34.0866526"></polygon>
                <path d="M14.9304908,0 L126.657722,83.5657265 L106.701805,34.0006773 L14.9304908,0 Z M234.376711,191.973245 L204.377715,237.449562 L268.606737,255 L287,192.962649 L234.376711,191.973245 Z M3,192.962649 L21.2821107,255 L85.3985311,237.449562 L55.5203527,191.965988 L3,192.962649 Z" id="Shape" stroke="#E27625" fill="#E27625"></path>
                <path d="M81.8632799,114.983705 L64,141.628201 L127.687434,144.490321 L125.563027,76.7563138 L81.8632799,114.983705 Z M208.119045,114.983705 L163.766528,76 L162.313776,144.499974 L226,141.635441 L208.119045,114.983705 Z M85.329546,237 L123.87735,218.608591 L90.6962538,193.061884 L85.329546,237 Z M166.115144,218.608591 L204.550118,237 L199.303262,193.061884 L166.115144,218.608591 Z" id="Shape" stroke="#E27625" fill="#E27625"></path>
                <path d="M204,237.32097 L165.627092,219 L168.75918,243.578611 L168.416003,253.990384 L204,237.32097 Z M85,237.32097 L120.685983,254 L120.462677,243.578611 L123.475861,219 L85,237.32097 Z" id="Shape" stroke="#D5BFB2" fill="#D5BFB2"></path>
                <path d="M121.806921,178 L90,168.510154 L112.466009,158 L121.806921,178 Z M168.082687,178 L177.415404,158 L200,168.510154 L168.082687,178 Z" id="Shape" stroke="#233447" fill="#233447"></path>
                <path d="M84.9035482,238 L90.4874431,192.336842 L55,193.327935 L84.9035482,238 Z M198.514492,192.336842 L203.984963,238 L234,193.327935 L198.514492,192.336842 Z M225.419438,142 L161.798006,144.890688 L167.715885,177.365992 L177.080016,157.748178 L199.740632,168.05749 L225.419438,142 Z M89.3706158,168.05749 L111.912245,157.748178 L121.284356,177.365992 L127.203445,144.890688 L63.5904774,142.007287 L89.3706158,168.05749 Z" id="Shape" stroke="#CC6228" fill="#CC6228"></path>
                <path d="M64,142 L90.7031317,193.263558 L89.8087743,167.801351 L64,142 Z M200.302355,167.801351 L199.297595,193.263558 L226,142.007216 L200.302355,167.801351 Z M127.683627,144.862273 L121.757964,177.018353 L129.240158,215 L130.925733,164.939077 L127.683627,144.862273 Z M162.315163,144.862273 L159.184669,164.835651 L160.751126,215 L168.232352,177.018353 L162.315163,144.862273 Z" id="Shape" stroke="#E27525" fill="#E27525"></path>
                <path d="M168.082687,177.230682 L160.634832,215.268704 L165.968846,219 L198.999722,193.5 L200,168 L168.082687,177.230682 Z M90,168 L90.8906092,193.5 L123.921485,219 L129.264176,215.268704 L121.815357,177.230682 L90,168 Z" id="Shape" stroke="#F5841F" fill="#F5841F"></path>
                <polygon id="Path" stroke="#C0AC9D" fill="#C0AC9D" points="168.416003 254.094685 168.75918 243.411123 165.856682 240.93981 123.252555 240.93981 120.462677 243.411123 120.685983 254.084829 85 237 97.4904082 247.343541 122.814884 265 166.192608 265 191.61907 247.343541 204 237"></polygon>
                <polygon id="Path" stroke="#161616" fill="#161616" points="165.886533 219.686401 160.560487 216 129.311467 216 123.986622 219.686401 121 244 123.764883 241.612163 166.11716 241.612163 169 244"></polygon>
                <path d="M279.518505,88.0312269 L289,42.4298045 L274.712417,0 L165.612299,79.8769144 L207.603854,114.909094 L266.90071,132 L279.966201,116.89884 L274.26714,112.817459 L283.317879,104.671597 L276.389466,99.3827502 L285.432944,92.5464845 L279.518505,88.0312269 Z M0,42.421354 L9.60176868,88.0312269 L3.46420643,92.5549351 L12.6190042,99.3827502 L5.69906123,104.671597 L14.7422977,112.825909 L9.04299448,116.907291 L22.1089696,131.992757 L81.4133282,114.917786 L123.396655,79.885365 L14.2953268,0 L0,42.421354 Z" id="Shape" stroke="#763E1A" fill="#763E1A"></path>
                <path d="M267.155169,132.10132 L207.951704,115.01867 L225.786198,141.695818 L199.137149,193.170828 L234.378457,192.728785 L287,192.728785 L267.155169,132.10132 Z M81.9453625,115.01867 L22.7406899,132.10132 L3,192.728785 L55.5273085,192.728785 L90.7601596,193.170828 L64.1101437,141.695818 L81.9453625,115.01867 Z M162.23103,144.563055 L166.024575,79.9622803 L183.189762,34 L106.707063,34 L123.872975,79.9622803 L127.66652,144.563055 L129.117007,164.843871 L129.228639,215 L160.667703,215 L160.778852,164.843871 L162.23103,144.563055 Z" id="Shape" stroke="#F5841F" fill="#F5841F"></path>
            </g>
        </g>
    </g>
</svg>