<?xml version="1.0" encoding="UTF-8"?>
<svg width="55px" height="40px" viewBox="0 0 55 40" version="1.1" xmlns="http://www.w3.org/2000/svg" xmlns:xlink="http://www.w3.org/1999/xlink">
    <title>Combined Shape</title>
    <defs>
        <path d="M72,38 L72,68 L54.8181818,68 C52.7104395,67.9976751 51.0023672,66.320104 51,64.25 L51,64.25 L51,41.75 C51.0023672,39.679896 52.7104395,38.0023249 54.8181818,38 L54.8181818,38 L72,38 Z M92.1818182,38 C94.2895605,38.0023249 95.9976328,39.679896 96,41.75 L96,41.75 L96,64.25 C95.9976328,66.320104 94.2895605,67.9976751 92.1818182,68 L92.1818182,68 L75,68 L75,38 Z M86.4545455,43.625 C83.2914601,43.625 80.7272727,46.1433983 80.7272727,49.25 L80.7272727,49.25 L80.7272727,56.75 C80.7272727,59.8566017 83.2914601,62.375 86.4545455,62.375 C89.6176308,62.375 92.1818182,59.8566017 92.1818182,56.75 L92.1818182,56.75 L92.1818182,49.25 C92.1818182,46.1433983 89.6176308,43.625 86.4545455,43.625 Z M60.5454545,43.625 C57.3837867,43.6283585 54.8216014,46.1447905 54.8181818,49.25 L54.8181818,49.25 L54.8181818,56.75 C54.8181818,59.8566017 57.3823692,62.3749999 60.5454545,62.3749999 C63.7085399,62.3749999 66.2727273,59.8566017 66.2727273,56.75 L66.2727273,56.75 L66.2727273,49.25 C66.2693077,46.1447905 63.7071224,43.6283585 60.5454545,43.625 Z M60.5,47 C61.3284271,47 62,47.8954305 62,49 L62,49 L62,57 C62,58.1045695 61.3284271,59 60.5,59 C59.6715729,59 59,58.1045695 59,57 L59,57 L59,49 C59,47.8954305 59.6715729,47 60.5,47 Z M86.5,47 C87.3284271,47 88,47.8954305 88,49 L88,49 L88,57 C88,58.1045695 87.3284271,59 86.5,59 C85.6715729,59 85,58.1045695 85,57 L85,57 L85,49 C85,47.8954305 85.6715729,47 86.5,47 Z" id="path-1"></path>
        <filter x="-16.7%" y="-25.0%" width="133.3%" height="150.0%" filterUnits="objectBoundingBox" id="filter-2">
            <feOffset dx="0" dy="0" in="SourceAlpha" result="shadowOffsetOuter1"></feOffset>
            <feGaussianBlur stdDeviation="2.5" in="shadowOffsetOuter1" result="shadowBlurOuter1"></feGaussianBlur>
            <feColorMatrix values="0 0 0 0 1   0 0 0 0 0.668542395   0 0 0 0 0  0 0 0 1 0" type="matrix" in="shadowBlurOuter1"></feColorMatrix>
        </filter>
    </defs>
    <g id="Page-1" stroke="none" stroke-width="1" fill="none" fill-rule="evenodd">
        <g id="SideNav" transform="translate(-46.000000, -605.000000)" fill-rule="nonzero">
            <g id="NavBar" transform="translate(0.000000, 572.000000)">
                <g id="Combined-Shape">
                    <use fill="black" fill-opacity="1" filter="url(#filter-2)" xlink:href="#path-1"></use>
                    <use fill="#F0B119" xlink:href="#path-1"></use>
                </g>
            </g>
        </g>
    </g>
</svg>