<?xml version="1.0" encoding="UTF-8"?>
<svg width="57px" height="43px" viewBox="0 0 57 43" version="1.1" xmlns="http://www.w3.org/2000/svg" xmlns:xlink="http://www.w3.org/1999/xlink">
    <title>Combined Shape</title>
    <defs>
        <path d="M61.0901597,364 C65.9577183,364 69.5029731,365.105013 72.2060412,367.852261 C71.2635478,368.7757 70.4323524,369.813654 69.729269,370.950491 C67.3321831,368.456975 64.250459,367.544267 60.7995878,367.544267 C56.9252962,367.544267 54.1648635,369.603774 54.1648635,372.62119 C54.1648635,375.830189 57.8938691,376.788099 62.010304,377.889695 L62.7837113,378.094298 L63.279115,378.227784 C64.3816135,378.52806 65.9880722,379.06997 68.0984911,379.853512 C70.2615289,380.886761 72.0450926,382.345639 72.8433487,384.665509 L72.883756,384.786273 C74.4764462,389.950266 78.9194362,393.369156 84.3465481,393.454113 L84.5538382,393.455733 C88.3357257,393.455733 91.6443959,391.583702 93.4975145,388.903684 L93.5615662,388.809869 L97,390.677794 C96.8546875,390.872833 96.7060381,391.065121 96.5539252,391.254395 L96.400653,391.442653 L96.3365545,391.519944 L96.1785622,391.706903 L95.9845237,391.92977 L95.8428307,392.087943 L95.6595103,392.28702 L95.5488354,392.40424 L95.3727339,392.586265 L95.2410232,392.718879 L95.106649,392.851138 L94.9291353,393.02126 L94.6780681,393.253193 L94.5375131,393.378721 L94.4710384,393.437035 L94.3352765,393.554063 L94.1714036,393.691691 L93.9594242,393.863971 L93.8165075,393.976553 L93.6650874,394.09277 C93.6099786,394.134501 93.5545457,394.175865 93.498776,394.216862 C93.3353254,394.337018 93.1689808,394.45403 92.99967,394.567746 L92.9182431,394.62203 L92.7270262,394.746349 L92.5607085,394.850948 L92.4124844,394.941458 L92.3107798,395.002111 L92.1722338,395.082865 L91.9573673,395.203919 L91.7739353,395.303324 L91.7106652,395.336786 C91.4914135,395.452016 91.2677086,395.562052 91.0394284,395.666641 L90.8468081,395.753114 L90.5992131,395.859132 L90.5739821,395.869617 L90.3770971,395.949447 L90.3770971,395.949447 L90.2731263,395.990197 L90.1102603,396.052111 L89.9390811,396.114698 L89.7705932,396.173858 L89.5777303,396.238655 L89.3533426,396.310201 L89.1459728,396.372723 L89.0151162,396.410433 L88.7970869,396.470322 L88.5954666,396.522492 L88.3643361,396.578582 L88.1215359,396.633321 L87.9256207,396.674433 L87.7695747,396.705262 L87.5909715,396.738495 L87.4005993,396.771547 L87.2347654,396.798377 L86.9887585,396.834873 L86.8153024,396.858276 L86.5754173,396.887525 L86.3623829,396.910525 L86.1667768,396.929225 L85.901753,396.950937 L85.7490905,396.961584 L85.5856603,396.9715 L85.4333548,396.979379 L85.2395805,396.98753 C85.0836161,396.993254 84.9263291,396.997022 84.7675679,396.998804 L84.5538382,397 L84.4294655,396.999585 L84.2662182,396.997788 L84.1504993,396.995614 L83.9595995,396.990531 L83.7155431,396.981115 L83.6352083,396.977009 C79.1807516,396.756234 75.2198445,394.930451 72.4108265,391.932144 L72.3033677,391.816259 C68.4513138,387.660377 68.2091705,383.58926 61.4481054,382.048868 L60.9448738,381.912917 L60.0072321,381.669465 L59.4228194,381.51469 L58.9976892,381.399253 C54.4192926,380.139868 50,378.355036 50,372.860668 C50,367.592163 54.7460072,364 61.0901597,364 Z M52.3207268,389 L52.4648637,389.157906 C54.5601851,391.41738 57.9158742,393.497041 62.2666987,393.497041 C66.7225356,393.497041 68.7805241,391.603425 69.4470383,389.617372 C70.1501034,390.912459 71.0085917,392.094059 72,393.142575 C70.2545453,395.394514 67.1144282,397 62.1246133,397 C56.6884791,397 52.6898127,394.960778 50.0827323,392.074645 L50,391.982249 L52.3207268,389 Z M84.5124375,364 C90.3557387,364 94.3344956,366.700921 96.9220157,370.273244 L97,370.381761 L93.5854321,372.267282 C91.7318096,369.559868 88.3660212,367.577654 84.5124375,367.577654 C78.1810995,367.577654 73.1357326,372.038612 72.2579125,378.610651 L72.2260906,378.864428 L72.2060909,379.044761 L72.1795061,379.328072 L72.1626771,379.542732 L72.1577791,379.613149 L72.1456043,379.812506 L72.1377996,379.968907 L72.1282876,380.243033 L72.1241347,380.444066 C72.1230023,380.522338 72.122434,380.600852 72.122434,380.679604 C72.122434,381.127434 72.1410438,381.567787 72.1774868,382 C71.6230054,381.336611 70.9548425,380.743445 70.1785279,380.214624 L70.0218246,380.109716 L69.853757,380.000646 L69.7647265,379.944104 C69.2018304,379.589349 68.6316315,379.281812 68,378.996416 L68.0146195,378.835318 L68.0349437,378.635065 L68.0496559,378.503667 C69.0431261,369.790953 75.9848302,364 84.5124375,364 Z" id="path-1"></path>
        <filter x="-16.0%" y="-22.7%" width="131.9%" height="145.5%" filterUnits="objectBoundingBox" id="filter-2">
            <feOffset dx="0" dy="0" in="SourceAlpha" result="shadowOffsetOuter1"></feOffset>
            <feGaussianBlur stdDeviation="2.5" in="shadowOffsetOuter1" result="shadowBlurOuter1"></feGaussianBlur>
            <feColorMatrix values="0 0 0 0 1   0 0 0 0 0.668542395   0 0 0 0 0  0 0 0 1 0" type="matrix" in="shadowBlurOuter1"></feColorMatrix>
        </filter>
    </defs>
    <g id="Page-1" stroke="none" stroke-width="1" fill="none" fill-rule="evenodd">
        <g id="SideNav" transform="translate(-45.000000, -931.000000)" fill-rule="nonzero">
            <g id="NavBar" transform="translate(0.000000, 572.000000)">
                <g id="Combined-Shape">
                    <use fill="black" fill-opacity="1" filter="url(#filter-2)" xlink:href="#path-1"></use>
                    <use fill="#F0B119" xlink:href="#path-1"></use>
                </g>
            </g>
        </g>
    </g>
</svg>