<?xml version="1.0" encoding="UTF-8"?>
<svg width="53px" height="49px" viewBox="0 0 53 49" version="1.1" xmlns="http://www.w3.org/2000/svg" xmlns:xlink="http://www.w3.org/1999/xlink">
    <title>Combined Shape</title>
    <defs>
        <path d="M74.4997172,41 L89.9728556,54.8869222 C89.9901979,54.9251962 90,54.9840952 90,55.0620799 L90,55.0620799 L90,69.1240573 C90,69.6318814 89.8289339,70.0721872 89.488027,70.4423067 C89.1476857,70.8138628 88.7435362,71 88.2771809,71 L88.2771809,71 L77.9445073,71 L77.9445073,59.7496793 L71.0550215,59.7496793 L71.0550215,70.9995896 L60.7222536,70.9995896 C60.2558041,70.9995896 59.8522201,70.8130419 59.5114074,70.4423067 C59.1705006,70.0717767 59,69.6317788 59,69.1240573 L59,69.1240573 L59,55.0620799 C59,55.0419681 59.0047126,55.0136473 59.0135722,54.974655 L59.0237513,54.9234005 L59.0237513,54.9234005 L59.0271444,54.8869222 L74.4997172,41 Z M74.5006329,32 C75.2831007,32 75.9588853,32.2754051 76.5272394,32.8263265 L76.5272394,32.8263265 L83.0349123,39.3101456 L83.0349123,33.1126409 C83.0349123,32.8163078 83.1147845,32.5724062 83.2746224,32.3816041 C83.434834,32.1910247 83.6393257,32.095735 83.8883776,32.095735 L83.8883776,32.095735 L89.0091694,32.095735 C89.2585016,32.095735 89.4630866,32.1910247 89.6222706,32.3816041 C89.7827625,32.5724062 89.8627281,32.8161964 89.8627281,33.1126409 L89.8627281,33.1126409 L89.8627281,46.0799452 L95.7033977,51.8643423 C95.8807982,52.0338823 95.9786067,52.2616425 95.9968231,52.546955 C96.0153199,52.8331581 95.9530102,53.0824031 95.8108282,53.2945785 L95.8108282,53.2945785 L94.1570524,55.6462083 C94.0138429,55.8363425 93.8277545,55.9536735 93.5969191,55.9955297 L93.5969191,55.9955297 L93.5167666,55.9955297 C93.2855574,55.9955297 93.0991889,55.9217247 92.9566333,55.7738921 L92.9566333,55.7738921 L74.5000724,37.4349644 L56.0436984,55.7740034 C55.8302387,55.9434321 55.6167789,56.0177937 55.4033192,55.9964203 C55.1721101,55.9537848 54.9856481,55.837233 54.8431859,55.6466536 L54.8431859,55.6466536 L53.1895969,53.2946898 C53.0471347,53.0829597 52.9850118,52.8332694 53.0030414,52.5474003 C53.0211645,52.2613085 53.1185993,52.0335483 53.2963734,51.8643423 L53.2963734,51.8643423 L72.4736528,32.8263265 C73.0425674,32.2754051 73.7182586,32 74.5006329,32 Z" id="path-1"></path>
        <filter x="-17.4%" y="-19.2%" width="134.9%" height="138.5%" filterUnits="objectBoundingBox" id="filter-2">
            <feOffset dx="0" dy="0" in="SourceAlpha" result="shadowOffsetOuter1"></feOffset>
            <feGaussianBlur stdDeviation="2.5" in="shadowOffsetOuter1" result="shadowBlurOuter1"></feGaussianBlur>
            <feColorMatrix values="0 0 0 0 1   0 0 0 0 0.668542395   0 0 0 0 0  0 0 0 1 0" type="matrix" in="shadowBlurOuter1"></feColorMatrix>
        </filter>
    </defs>
    <g id="Page-1" stroke="none" stroke-width="1" fill="none" fill-rule="evenodd">
        <g id="SideNav" transform="translate(-48.000000, -590.000000)" fill-rule="nonzero">
            <g id="NavBar" transform="translate(0.000000, 563.000000)">
                <g id="Group-7-Copy">
                    <g id="Combined-Shape">
                        <use fill="black" fill-opacity="1" filter="url(#filter-2)" xlink:href="#path-1"></use>
                        <use fill="#F0B119" xlink:href="#path-1"></use>
                    </g>
                </g>
            </g>
        </g>
    </g>
</svg>