<?xml version="1.0" encoding="UTF-8"?>
<svg width="55px" height="43px" viewBox="0 0 55 43" version="1.1" xmlns="http://www.w3.org/2000/svg" xmlns:xlink="http://www.w3.org/1999/xlink">
    <title>Combined Shape</title>
    <defs>
        <path d="M88.0319549,147 L91.6353383,150.310738 C91.9567669,150.609131 92.4135338,150.779641 92.887218,150.779641 C93.3609023,150.779641 93.8007519,150.609131 94.1052632,150.310738 L94.1052632,150.310738 L96,148.5488 L96,178.43699 L94.1221805,176.689262 C93.8176692,176.390869 93.3778195,176.220359 92.9041353,176.220359 C92.4304511,176.220359 91.9736842,176.390869 91.6522556,176.689262 L91.6522556,176.689262 L88.0488722,180 L84.4454887,176.703471 C83.8195489,176.120894 82.7368421,176.092476 82.0601504,176.618216 C82.0263158,176.646634 81.9924812,176.675052 81.9586466,176.703471 L81.9586466,176.703471 L78.3552632,180 L74.7518797,176.703471 C74.1259398,176.120894 73.0432331,176.092476 72.3665414,176.618216 C72.3327068,176.646634 72.2988722,176.675052 72.2650376,176.703471 L72.2650376,176.703471 L68.6616541,180 L65.0582707,176.703471 C64.4323308,176.120894 63.3496241,176.092476 62.6729323,176.618216 C62.6390977,176.646634 62.6052632,176.675052 62.5714286,176.703471 L62.5714286,176.703471 L58.9511278,180 L55.3477444,176.689262 C55.0263158,176.390869 54.5695489,176.220359 54.0958647,176.220359 C53.6221805,176.220359 53.1823308,176.390869 52.8778195,176.689262 L52.8778195,176.689262 L51,178.4512 L51,148.56301 L52.8778195,150.310738 C53.1823308,150.609131 53.6221805,150.779641 54.0958647,150.779641 C54.5695489,150.779641 55.0263158,150.609131 55.3477444,150.310738 L55.3477444,150.310738 L58.9511278,147 L62.5545113,150.296529 C63.1804511,150.879106 64.2631579,150.907524 64.9398496,150.381784 C64.9736842,150.353366 65.0075188,150.324948 65.0413534,150.296529 L65.0413534,150.296529 L68.6447368,147 L72.2481203,150.296529 C72.8740602,150.879106 73.9567669,150.907524 74.6334586,150.381784 C74.6672932,150.353366 74.7011278,150.324948 74.7349624,150.296529 L74.7349624,150.296529 L78.3383459,147 L81.9417293,150.296529 C82.5676692,150.879106 83.6503759,150.907524 84.3270677,150.381784 C84.3609023,150.353366 84.3947368,150.324948 84.4285714,150.296529 L84.4285714,150.296529 L88.0319549,147 Z M88.3246073,167 L59.6753927,167 C58.7539267,167 58,167.675 58,168.5 C58,169.325 58.7539267,170 59.6753927,170 L59.6753927,170 L88.3246073,170 C89.2460733,170 90,169.325 90,168.5 C90,167.675 89.2460733,167 88.3246073,167 L88.3246073,167 Z M88.3246073,162 L59.6753927,162 C58.7539267,162 58,162.675 58,163.5 C58,164.325 58.7539267,165 59.6753927,165 L59.6753927,165 L88.3246073,165 C89.2460733,165 90,164.325 90,163.5 C90,162.675 89.2460733,162 88.3246073,162 L88.3246073,162 Z M81.2342007,156 L65.7657993,156 C64.7946097,156 64,156.675 64,157.5 C64,158.325 64.7946097,159 65.7657993,159 L65.7657993,159 L81.2342007,159 C82.2053903,159 83,158.325 83,157.5 C83,156.675 82.2053903,156 81.2342007,156 L81.2342007,156 Z" id="path-1"></path>
        <filter x="-16.7%" y="-22.7%" width="133.3%" height="145.5%" filterUnits="objectBoundingBox" id="filter-2">
            <feOffset dx="0" dy="0" in="SourceAlpha" result="shadowOffsetOuter1"></feOffset>
            <feGaussianBlur stdDeviation="2.5" in="shadowOffsetOuter1" result="shadowBlurOuter1"></feGaussianBlur>
            <feComposite in="shadowBlurOuter1" in2="SourceAlpha" operator="out" result="shadowBlurOuter1"></feComposite>
            <feColorMatrix values="0 0 0 0 1   0 0 0 0 0.668542395   0 0 0 0 0  0 0 0 1 0" type="matrix" in="shadowBlurOuter1"></feColorMatrix>
        </filter>
    </defs>
    <g id="Page-1" stroke="none" stroke-width="1" fill="none" fill-rule="evenodd">
        <g id="SideNav" transform="translate(-46.000000, -714.000000)" fill-rule="nonzero">
            <g id="NavBar" transform="translate(0.000000, 572.000000)">
                <g id="Combined-Shape">
                    <use fill="black" fill-opacity="1" filter="url(#filter-2)" xlink:href="#path-1"></use>
                    <use fill-opacity="0.8" fill="#F0B119" xlink:href="#path-1"></use>
                </g>
            </g>
        </g>
    </g>
</svg>