<?xml version="1.0" encoding="UTF-8"?>
<svg width="389px" height="98px" viewBox="0 0 389 98" version="1.1" xmlns="http://www.w3.org/2000/svg" xmlns:xlink="http://www.w3.org/1999/xlink">
    <title>Group 2 Copy 3</title>
    <defs>
        <radialGradient cx="50%" cy="4.64111299%" fx="50%" fy="4.64111299%" r="123.720875%" gradientTransform="translate(0.500000,0.046411),scale(0.251928,1.000000),rotate(90.000000),scale(1.000000,1.903321),translate(-0.500000,-0.046411)" id="radialGradient-1">
            <stop stop-color="#FCFCFC" offset="0%"></stop>
            <stop stop-color="#828282" offset="100%"></stop>
        </radialGradient>
        <linearGradient x1="50%" y1="0%" x2="50%" y2="100%" id="linearGradient-2">
            <stop stop-color="#0048A3" offset="0%"></stop>
            <stop stop-color="#000000" offset="100%"></stop>
        </linearGradient>
        <path d="M107.016,64 L107.016,53.587 L110.331,53.587 C111.761,53.587 113.139,53.431 114.465,53.119 C115.791,52.807 116.961,52.313 117.975,51.637 C118.989,50.961 119.795,50.0705 120.393,48.9655 C120.991,47.8605 121.29,46.502 121.29,44.89 C121.29,43.304 121.0105,41.9715 120.4515,40.8925 C119.8925,39.8135 119.1255,38.9425 118.1505,38.2795 C117.1755,37.6165 116.0315,37.1355 114.7185,36.8365 C113.4055,36.5375 111.995,36.388 110.487,36.388 L110.487,36.388 L100.347,36.388 L100.347,64 L107.016,64 Z M109.824,48.283 L107.016,48.283 L107.016,41.77 L109.941,41.77 C110.539,41.77 111.1175,41.809 111.6765,41.887 C112.2355,41.965 112.736,42.121 113.178,42.355 C113.62,42.589 113.971,42.914 114.231,43.33 C114.491,43.746 114.621,44.279 114.621,44.929 C114.621,45.579 114.491,46.1185 114.231,46.5475 C113.971,46.9765 113.6135,47.321 113.1585,47.581 C112.7035,47.841 112.19,48.023 111.618,48.127 C111.046,48.231 110.448,48.283 109.824,48.283 L109.824,48.283 Z M135.957545,64 C137.855545,64 139.727545,63.7335 141.573545,63.2005 C143.419545,62.6675 145.077045,61.8355 146.546045,60.7045 C148.015045,59.5735 149.198045,58.1305 150.095045,56.3755 C150.992045,54.6205 151.440545,52.534 151.440545,50.116 C151.440545,47.516 150.985545,45.332 150.075545,43.564 C149.165545,41.796 147.969545,40.3855 146.487545,39.3325 C145.005545,38.2795 143.315545,37.5255 141.417545,37.0705 C139.519545,36.6155 137.595545,36.388 135.645545,36.388 L135.645545,36.388 L125.661545,36.388 L125.661545,64 L135.957545,64 Z M135.333545,58.228 L132.174545,58.228 L132.174545,42.082 L135.489545,42.082 C136.633545,42.082 137.745045,42.212 138.824045,42.472 C139.903045,42.732 140.865045,43.1675 141.710045,43.7785 C142.555045,44.3895 143.231045,45.2085 143.738045,46.2355 C144.245045,47.2625 144.498545,48.556 144.498545,50.116 C144.498545,51.65 144.245045,52.937 143.738045,53.977 C143.231045,55.017 142.555045,55.849 141.710045,56.473 C140.865045,57.097 139.890045,57.5455 138.785045,57.8185 C137.680045,58.0915 136.529545,58.228 135.333545,58.228 L135.333545,58.228 Z M162.793091,64 L162.793091,53.275 L173.479091,53.275 L173.479091,47.776 L162.793091,47.776 L162.793091,42.082 L174.376091,42.082 L174.376091,36.388 L156.202091,36.388 L156.202091,64 L162.793091,64 Z M197.939182,64.546 C199.863182,64.546 201.468682,64.2405 202.755682,63.6295 C204.042682,63.0185 205.128182,62.245 206.012182,61.309 L206.012182,61.309 L208.625182,64 L216.698182,64 L209.834182,57.175 L215.801182,49.18 L208.703182,49.18 L205.934182,53.431 L202.463182,49.882 C203.217182,49.492 203.932182,49.063 204.608182,48.595 C205.284182,48.127 205.875682,47.6005 206.382682,47.0155 C206.889682,46.4305 207.286182,45.7805 207.572182,45.0655 C207.858182,44.3505 208.001182,43.551 208.001182,42.667 C208.001182,41.445 207.760682,40.392 207.279682,39.508 C206.798682,38.624 206.161682,37.896 205.368682,37.324 C204.575682,36.752 203.672182,36.3295 202.658182,36.0565 C201.644182,35.7835 200.617182,35.647 199.577182,35.647 C198.563182,35.647 197.542682,35.777 196.515682,36.037 C195.488682,36.297 194.565682,36.713 193.746682,37.285 C192.927682,37.857 192.258182,38.585 191.738182,39.469 C191.218182,40.353 190.958182,41.419 190.958182,42.667 C190.958182,43.863 191.218182,44.955 191.738182,45.943 C192.258182,46.931 192.947182,47.841 193.805182,48.673 C193.051182,49.011 192.323182,49.414 191.621182,49.882 C190.919182,50.35 190.301682,50.896 189.768682,51.52 C189.235682,52.144 188.813182,52.859 188.501182,53.665 C188.189182,54.471 188.033182,55.355 188.033182,56.317 C188.033182,57.721 188.312682,58.9365 188.871682,59.9635 C189.430682,60.9905 190.171682,61.8485 191.094682,62.5375 C192.017682,63.2265 193.077182,63.7335 194.273182,64.0585 C195.469182,64.3835 196.691182,64.546 197.939182,64.546 Z M199.070182,46.45 C198.394182,45.904 197.880682,45.332 197.529682,44.734 C197.178682,44.136 197.003182,43.512 197.003182,42.862 C197.003182,42.134 197.256682,41.5295 197.763682,41.0485 C198.270682,40.5675 198.901182,40.327 199.655182,40.327 C200.461182,40.327 201.098182,40.574 201.566182,41.068 C202.034182,41.562 202.268182,42.16 202.268182,42.862 C202.268182,43.694 201.956182,44.409 201.332182,45.007 C200.708182,45.605 199.954182,46.086 199.070182,46.45 Z M198.173182,59.515 C197.705182,59.515 197.250182,59.437 196.808182,59.281 C196.366182,59.125 195.969682,58.8975 195.618682,58.5985 C195.267682,58.2995 194.981682,57.9355 194.760682,57.5065 C194.539682,57.0775 194.429182,56.59 194.429182,56.044 C194.429182,55.004 194.721682,54.2045 195.306682,53.6455 C195.891682,53.0865 196.574182,52.651 197.354182,52.339 L197.354182,52.339 L202.229182,57.409 C201.735182,58.085 201.150182,58.605 200.474182,58.969 C199.798182,59.333 199.031182,59.515 198.173182,59.515 Z M243.030273,64 L253.677273,36.388 L246.306273,36.388 L239.949273,55.966 L239.793273,55.966 L233.397273,36.388 L225.909273,36.388 L236.361273,64 L243.030273,64 Z M263.001818,64 L263.001818,36.388 L256.293818,36.388 L256.293818,64 L263.001818,64 Z M279.346364,64 C281.244364,64 283.116364,63.7335 284.962364,63.2005 C286.808364,62.6675 288.465864,61.8355 289.934864,60.7045 C291.403864,59.5735 292.586864,58.1305 293.483864,56.3755 C294.380864,54.6205 294.829364,52.534 294.829364,50.116 C294.829364,47.516 294.374364,45.332 293.464364,43.564 C292.554364,41.796 291.358364,40.3855 289.876364,39.3325 C288.394364,38.2795 286.704364,37.5255 284.806364,37.0705 C282.908364,36.6155 280.984364,36.388 279.034364,36.388 L279.034364,36.388 L269.050364,36.388 L269.050364,64 L279.346364,64 Z M278.722364,58.228 L275.563364,58.228 L275.563364,42.082 L278.878364,42.082 C280.022364,42.082 281.133864,42.212 282.212864,42.472 C283.291864,42.732 284.253864,43.1675 285.098864,43.7785 C285.943864,44.3895 286.619864,45.2085 287.126864,46.2355 C287.633864,47.2625 287.887364,48.556 287.887364,50.116 C287.887364,51.65 287.633864,52.937 287.126864,53.977 C286.619864,55.017 285.943864,55.849 285.098864,56.473 C284.253864,57.097 283.278864,57.5455 282.173864,57.8185 C281.068864,58.0915 279.918364,58.228 278.722364,58.228 L278.722364,58.228 Z M318.856909,64 L318.856909,58.306 L306.025909,58.306 L306.025909,52.573 L317.491909,52.573 L317.491909,47.23 L306.025909,47.23 L306.025909,42.043 L318.154909,42.043 L318.154909,36.388 L299.590909,36.388 L299.590909,64 L318.856909,64 Z M337.346455,64.741 C339.504455,64.741 341.506455,64.39 343.352455,63.688 C345.198455,62.986 346.790955,61.9915 348.129955,60.7045 C349.468955,59.4175 350.515455,57.8705 351.269455,56.0635 C352.023455,54.2565 352.400455,52.261 352.400455,50.077 C352.400455,47.867 352.023455,45.8715 351.269455,44.0905 C350.515455,42.3095 349.468955,40.795 348.129955,39.547 C346.790955,38.299 345.198455,37.337 343.352455,36.661 C341.506455,35.985 339.504455,35.647 337.346455,35.647 C335.188455,35.647 333.192955,35.985 331.359955,36.661 C329.526955,37.337 327.940955,38.299 326.601955,39.547 C325.262955,40.795 324.216455,42.3095 323.462455,44.0905 C322.708455,45.8715 322.331455,47.867 322.331455,50.077 C322.331455,52.261 322.708455,54.2565 323.462455,56.0635 C324.216455,57.8705 325.262955,59.4175 326.601955,60.7045 C327.940955,61.9915 329.526955,62.986 331.359955,63.688 C333.192955,64.39 335.188455,64.741 337.346455,64.741 Z M337.346455,58.657 C336.176455,58.657 335.110455,58.4425 334.148455,58.0135 C333.186455,57.5845 332.360955,56.993 331.671955,56.239 C330.982955,55.485 330.443455,54.5815 330.053455,53.5285 C329.663455,52.4755 329.468455,51.325 329.468455,50.077 C329.468455,48.881 329.656955,47.763 330.033955,46.723 C330.410955,45.683 330.950455,44.7925 331.652455,44.0515 C332.354455,43.3105 333.186455,42.7255 334.148455,42.2965 C335.110455,41.8675 336.176455,41.653 337.346455,41.653 C338.516455,41.653 339.588955,41.8675 340.563955,42.2965 C341.538955,42.7255 342.370955,43.3105 343.059955,44.0515 C343.748955,44.7925 344.288455,45.683 344.678455,46.723 C345.068455,47.763 345.263455,48.881 345.263455,50.077 C345.263455,51.325 345.068455,52.4755 344.678455,53.5285 C344.288455,54.5815 343.742455,55.485 343.040455,56.239 C342.338455,56.993 341.506455,57.5845 340.544455,58.0135 C339.582455,58.4425 338.516455,58.657 337.346455,58.657 Z" id="path-3"></path>
        <filter x="-0.4%" y="-3.4%" width="101.6%" height="113.7%" filterUnits="objectBoundingBox" id="filter-4">
            <feOffset dx="1" dy="1" in="SourceAlpha" result="shadowOffsetOuter1"></feOffset>
            <feGaussianBlur stdDeviation="0.5" in="shadowOffsetOuter1" result="shadowBlurOuter1"></feGaussianBlur>
            <feColorMatrix values="0 0 0 0 1   0 0 0 0 1   0 0 0 0 1  0 0 0 1 0" type="matrix" in="shadowBlurOuter1"></feColorMatrix>
        </filter>
        <linearGradient x1="50%" y1="0%" x2="50%" y2="100%" id="linearGradient-5">
            <stop stop-color="#0048A3" offset="0%"></stop>
            <stop stop-color="#000000" offset="100%"></stop>
        </linearGradient>
        <path d="M49.76,34.7580645 L49.76,34.7580645 C50.192,34.7580645 50.192,34.7580645 49.76,34.7580645 C50.192,33.016129 50.624,32.1451613 50.624,30.8387097 L50.624,29.9677419 C51.056,27.7903226 51.056,26.0483871 50.624,25.6129032 C50.624,25.6129032 50.624,25.6129032 50.624,25.1774194 L50.192,24.7419355 L50.192,24.7419355 L50.192,24.7419355 C50.192,24.7419355 50.192,25.1774194 49.76,25.1774194 C48.896,27.7903226 48.896,30.8387097 49.76,34.7580645 L49.76,34.7580645 Z M36.8,64.8064516 C35.936,65.2419355 35.072,65.6774194 34.64,66.1129032 C31.616,68.7258065 29.456,71.7740228 29.024,73.0806452 L29.024,73.0806452 L29.024,73.0806452 L29.024,73.0806452 C31.616,72.6451613 34.208,70.0322581 36.8,64.8064516 C37.232,64.8064516 37.232,64.8064516 36.8,64.8064516 C37.232,64.8064516 36.8,64.8064516 36.8,64.8064516 Z M76.544,58.2741935 C76.112,57.8387097 74.384,56.5322581 68.336,56.5322581 C67.904,56.5322581 67.904,56.5322581 67.472,56.5322581 L67.472,56.5322581 C67.472,56.5322581 67.472,56.5322581 67.472,56.9677419 C70.496,58.2741935 73.52,59.1451613 75.68,59.1451613 C76.112,59.1451613 76.112,59.1451613 76.544,59.1451613 L76.544,59.1451613 L76.976,59.1451613 C76.976,59.1451613 76.976,59.1451613 76.976,58.7096774 L76.976,58.7096774 C76.976,58.7096774 76.544,58.7096774 76.544,58.2741935 Z M78.272,61.7580645 C77.4078306,62.1935484 76.112,62.6290323 74.384,62.6290323 C70.928,62.6290323 65.744,61.7580645 61.424,59.5806452 C54.08,60.4516129 48.464,61.3224099 44.144,63.0643454 C43.712,63.0643454 43.712,63.0643454 43.28,63.4998292 C38.096,72.6451613 33.776,77 30.32,77 C29.456,77 29.024,77 28.592,76.5643454 L26.432,75.2580645 L26.432,74.8225806 C26,73.9514421 26,73.516129 26,72.6451613 C26.432,70.4677419 29.024,66.5483871 34.208,63.4998292 C35.072,63.0643454 36.368,62.1935484 38.096,61.3224099 C39.392,59.1449905 40.688,56.5320873 42.416,53.483871 C44.576,49.1290323 45.872,44.7741935 47.168,40.8548387 L47.168,40.8548387 C45.44,35.6290323 44.576,32.5806452 46.304,26.483871 C46.736,24.7419355 48.032,23 49.76,23 L50.624,23 C51.488,23 52.352,23.4354839 53.216,23.8709677 C56.2401694,26.9193548 54.944,33.8870968 53.216,39.5483871 C53.216,39.983871 53.216,39.983871 53.216,39.983871 C54.944,44.7741935 57.536,48.6935484 60.128,51.3064516 C61.424,52.1774194 62.288,53.0483871 64.016,53.9193548 C66.176,53.9193548 67.904,53.483871 69.632,53.483871 C74.816,53.483871 78.272,54.3548387 79.5678306,56.5322581 C80,57.4033966 80,58.2741935 80,59.1451613 C79.568,59.5806452 79.136,60.8870968 78.272,61.7580645 Z M50.192,44.7741935 C49.328,47.8225806 47.6,51.3064516 45.872,55.2258065 C45.008,56.9675712 44.144,58.2741935 43.28,60.016129 L43.712,60.016129 L44.144,60.016129 L44.144,60.016129 C49.76,57.8387097 54.944,56.5322581 58.4,56.0967742 C57.5358306,55.6612903 57.104,55.2258065 56.672,54.7903226 C54.512,52.1774194 51.92,48.6935484 50.192,44.7741935 Z" id="path-6"></path>
        <filter x="-1.9%" y="-1.9%" width="107.4%" height="107.4%" filterUnits="objectBoundingBox" id="filter-7">
            <feOffset dx="1" dy="1" in="SourceAlpha" result="shadowOffsetOuter1"></feOffset>
            <feGaussianBlur stdDeviation="0.5" in="shadowOffsetOuter1" result="shadowBlurOuter1"></feGaussianBlur>
            <feColorMatrix values="0 0 0 0 1   0 0 0 0 1   0 0 0 0 1  0 0 0 1 0" type="matrix" in="shadowBlurOuter1"></feColorMatrix>
        </filter>
        <linearGradient x1="50%" y1="0%" x2="50%" y2="100%" id="linearGradient-8">
            <stop stop-color="#FFFFFF" stop-opacity="0.687472684" offset="0%"></stop>
            <stop stop-color="#FFFFFF" stop-opacity="0" offset="99.934016%"></stop>
        </linearGradient>
    </defs>
    <g id="Page-1" stroke="none" stroke-width="1" fill="none" fill-rule="evenodd">
        <g id="Home-Copy-5" transform="translate(-181.000000, -719.000000)">
            <g id="Group-2-Copy-3" transform="translate(181.000000, 719.000000)">
                <rect id="Rectangle-Copy-3" stroke="#515151" stroke-width="4" fill="url(#radialGradient-1)" x="2" y="2" width="385" height="94" rx="30"></rect>
                <g id="PDF&amp;VIDEO" fill-rule="nonzero">
                    <use fill="black" fill-opacity="1" filter="url(#filter-4)" xlink:href="#path-3"></use>
                    <use fill="#040455" xlink:href="#path-3"></use>
                    <use fill="url(#linearGradient-2)" xlink:href="#path-3"></use>
                </g>
                <g id="Shape" fill-rule="nonzero">
                    <use fill="black" fill-opacity="1" filter="url(#filter-7)" xlink:href="#path-6"></use>
                    <use fill="#000000" xlink:href="#path-6"></use>
                    <use fill="url(#linearGradient-5)" xlink:href="#path-6"></use>
                </g>
                <path d="M118,4 L385,4 L385,4 C323.610355,11.3301496 271.551707,19.317571 228.824057,27.9622642 C186.096407,36.6069573 140.488388,52.6195359 92,76 L92,30 C92,15.6405965 103.640597,4 118,4 Z" id="Rectangle-Copy-7" fill="url(#linearGradient-8)" opacity="0.58984375" transform="translate(238.500000, 40.000000) scale(-1, 1) translate(-238.500000, -40.000000) "></path>
            </g>
        </g>
    </g>
</svg>