<?xml version="1.0" encoding="UTF-8"?>
<svg width="57px" height="54px" viewBox="0 0 57 54" version="1.1" xmlns="http://www.w3.org/2000/svg" xmlns:xlink="http://www.w3.org/1999/xlink">
    <title>Group 5</title>
    <defs>
        <linearGradient x1="49.9346405%" y1="0.0410950519%" x2="49.9346405%" y2="98.753068%" id="linearGradient-1">
            <stop stop-color="#A59565" offset="0%"></stop>
            <stop stop-color="#6C6453" offset="100%"></stop>
        </linearGradient>
        <radialGradient cx="50%" cy="0%" fx="50%" fy="0%" r="100%" id="radialGradient-2">
            <stop stop-color="#FFFFFF" offset="0%"></stop>
            <stop stop-color="#4E4E4E" offset="100%"></stop>
        </radialGradient>
    </defs>
    <g id="Page-1" stroke="none" stroke-width="1" fill="none" fill-rule="evenodd">
        <g id="Home" transform="translate(-654.000000, -89.000000)">
            <g id="Group-5" transform="translate(654.000000, 89.000000)">
                <g id="wallet" transform="translate(11.000000, 0.000000)" fill="url(#linearGradient-1)" fill-rule="nonzero">
                    <path d="M44.1359477,11.6579303 L36.2588235,11.6579303 L36.2588235,1.85413696 C36.2588235,1.24896453 35.9581699,0.704309344 35.4771242,0.341205888 C34.9960784,-0.0218975679 34.3947712,-0.0824148106 33.8535948,0.0991369175 L1.20261438,11.7789648 L1.20261438,11.7789648 C0.481045752,12.0210337 0,12.6867234 0,13.4734476 L0,45.1844827 C0,46.2132758 0.781699346,47 1.80392157,47 L44.1960784,47 C45.2183007,47 46,46.2132758 46,45.1844827 L46,13.4734476 C45.9398693,12.4446544 45.2183007,11.6579303 44.1359477,11.6579303 Z M32.6509804,11.6579303 L12.3267974,11.6579303 L32.5908497,4.39586115 L32.6509804,11.6579303 L32.6509804,11.6579303 Z M3.66797386,29.3689654 L3.66797386,29.2889648 C3.66797386,21.5569783 9.93598736,15.2889648 17.6679739,15.2889648 L34.6455633,15.2889648 C38.9570981,15.2889648 42.4522876,18.7841544 42.4522876,23.0956891 L42.4522876,23.0956891 L42.4522876,23.0956891 L33.2522876,23.0956891 C32.2300654,23.0956891 31.448366,23.8824133 31.448366,24.9112064 L31.448366,33.7467239 C31.448366,34.775517 32.2300654,35.5622411 33.2522876,35.5622411 L42.3921569,35.5622411 C42.3921569,39.8737759 38.8969673,43.3689654 34.5854326,43.3689654 L17.6679739,43.3689654 C9.93598736,43.3689654 3.66797386,37.1009519 3.66797386,29.3689654 Z M42.3320261,26.7267237 L42.3320261,31.9312066 L35.0562092,31.9312066 L35.0562092,26.7267237 C35.0562092,26.7267237 42.3320261,26.7267237 42.3320261,26.7267237 Z" id="Shape"></path>
                </g>
                <circle id="Oval" fill="url(#radialGradient-2)" cx="13.5" cy="40.5" r="13.5"></circle>
            </g>
        </g>
    </g>
</svg>